<svg width="52" height="50" viewBox="0 0 52 50" fill="none" xmlns="http://www.w3.org/2000/svg">
<g clip-path="url(#clip0_6_27)">
<path d="M26.0003 45.8334C28.3837 45.8334 30.3337 43.9584 30.3337 41.6667H21.667C21.667 43.9584 23.617 45.8334 26.0003 45.8334ZM39.0003 33.3334V22.9167C39.0003 16.5209 35.4687 11.1667 29.2503 9.75004V8.33337C29.2503 6.60421 27.7987 5.20837 26.0003 5.20837C24.202 5.20837 22.7503 6.60421 22.7503 8.33337V9.75004C16.5537 11.1667 13.0003 16.5 13.0003 22.9167V33.3334L8.66699 37.5V39.5834H43.3337V37.5L39.0003 33.3334ZM34.667 35.4167H17.3337V22.9167C17.3337 17.75 20.6053 13.5417 26.0003 13.5417C31.3953 13.5417 34.667 17.75 34.667 22.9167V35.4167Z" fill="black"/>
<ellipse cx="34.2108" cy="17.1053" rx="9.57895" ry="9.21053" fill="#FF6161"/>
</g>
<defs>
<clipPath id="clip0_6_27">
<rect width="52" height="50" fill="white"/>
</clipPath>
</defs>
</svg>
