<svg width="52" height="50" viewBox="0 0 52 50" fill="none" xmlns="http://www.w3.org/2000/svg">
<g clip-path="url(#clip0_6_24)">
<path d="M42.0985 27.0416C42.1851 26.375 42.2501 25.7083 42.2501 25C42.2501 24.2916 42.1851 23.625 42.0985 22.9583L46.6701 19.5208C47.0818 19.2083 47.1901 18.6458 46.9301 18.1875L42.5968 10.9791C42.4018 10.6458 42.0335 10.4583 41.6435 10.4583C41.5135 10.4583 41.3835 10.4791 41.2751 10.5208L35.8801 12.6041C34.7535 11.7708 33.5401 11.0833 32.2185 10.5625L31.3951 5.04163C31.3301 4.54163 30.8751 4.16663 30.3335 4.16663H21.6668C21.1251 4.16663 20.6701 4.54163 20.6051 5.04163L19.7818 10.5625C18.4601 11.0833 17.2468 11.7916 16.1201 12.6041L10.7251 10.5208C10.5951 10.4791 10.4651 10.4583 10.3351 10.4583C9.96681 10.4583 9.59847 10.6458 9.40347 10.9791L5.07014 18.1875C4.78847 18.6458 4.91847 19.2083 5.33014 19.5208L9.90181 22.9583C9.81514 23.625 9.75014 24.3125 9.75014 25C9.75014 25.6875 9.81514 26.375 9.90181 27.0416L5.33014 30.4791C4.91847 30.7916 4.81014 31.3541 5.07014 31.8125L9.40347 39.0208C9.59847 39.3541 9.96681 39.5416 10.3568 39.5416C10.4868 39.5416 10.6168 39.5208 10.7251 39.4791L16.1201 37.3958C17.2468 38.2291 18.4601 38.9166 19.7818 39.4375L20.6051 44.9583C20.6701 45.4583 21.1251 45.8333 21.6668 45.8333H30.3335C30.8751 45.8333 31.3301 45.4583 31.3951 44.9583L32.2185 39.4375C33.5401 38.9166 34.7535 38.2083 35.8801 37.3958L41.2751 39.4791C41.4051 39.5208 41.5351 39.5416 41.6651 39.5416C42.0335 39.5416 42.4018 39.3541 42.5968 39.0208L46.9301 31.8125C47.1901 31.3541 47.0818 30.7916 46.6701 30.4791L42.0985 27.0416ZM37.8085 23.4791C37.8951 24.125 37.9168 24.5625 37.9168 25C37.9168 25.4375 37.8735 25.8958 37.8085 26.5208L37.5051 28.875L39.4335 30.3333L41.7735 32.0833L40.2568 34.6041L37.5051 33.5416L35.2518 32.6666L33.3018 34.0833C32.3701 34.75 31.4818 35.25 30.5935 35.6041L28.2968 36.5L27.9501 38.8541L27.5168 41.6666H24.4835L24.0718 38.8541L23.7251 36.5L21.4285 35.6041C20.4968 35.2291 19.6301 34.75 18.7635 34.125L16.7918 32.6666L14.4951 33.5625L11.7435 34.625L10.2268 32.1041L12.5668 30.3541L14.4951 28.8958L14.1918 26.5416C14.1268 25.8958 14.0835 25.4166 14.0835 25C14.0835 24.5833 14.1268 24.1041 14.1918 23.4791L14.4951 21.125L12.5668 19.6666L10.2268 17.9166L11.7435 15.3958L14.4951 16.4583L16.7485 17.3333L18.6985 15.9166C19.6301 15.25 20.5185 14.75 21.4068 14.3958L23.7035 13.5L24.0501 11.1458L24.4835 8.33329H27.4951L27.9068 11.1458L28.2535 13.5L30.5501 14.3958C31.4818 14.7708 32.3485 15.25 33.2151 15.875L35.1868 17.3333L37.4835 16.4375L40.2351 15.375L41.7518 17.8958L39.4335 19.6666L37.5051 21.125L37.8085 23.4791ZM26.0001 16.6666C21.2118 16.6666 17.3335 20.3958 17.3335 25C17.3335 29.6041 21.2118 33.3333 26.0001 33.3333C30.7885 33.3333 34.6668 29.6041 34.6668 25C34.6668 20.3958 30.7885 16.6666 26.0001 16.6666ZM26.0001 29.1666C23.6168 29.1666 21.6668 27.2916 21.6668 25C21.6668 22.7083 23.6168 20.8333 26.0001 20.8333C28.3835 20.8333 30.3335 22.7083 30.3335 25C30.3335 27.2916 28.3835 29.1666 26.0001 29.1666Z" fill="black"/>
</g>
<defs>
<clipPath id="clip0_6_24">
<rect width="52" height="50" fill="white"/>
</clipPath>
</defs>
</svg>
